<?xml version="1.0" encoding="utf-8"?>
<svg version="1.1" viewBox="0 0 2048 1449" width="1280" height="1280" xmlns="http://www.w3.org/2000/svg">
  <defs/>
  <path transform="translate(658,201)" d="m0 0 654 2 8 1h25l12 2 17 2 21 4 25 9 11 4 10 4 18 6 10 5 13 6 20 11 22 14 17 12 11 10 13 10 9 8 7 8 8 7 11 12 9 11 11 14 11 16 12 17 13 22 18 36 8 18 10 25 13 41 5 21 5 17 6 29 5 33 3 13 2 21 2 33 2 6 1 13v171l-1 24-5 51-9 75-9 49-10 47-8 30-7 21-13 35-7 16-13 23-10 15-9 11-9 10-11 10-13 10-13 8-16 9-21 8-32 8-22 3h-25l-24-3-26-8-21-9-18-10-11-7-13-10-20-18-8-8-9-11-12-17-14-21-14-23-13-21-13-26-7-18-9-16-5-5h-8l-3 2-10 3-9 3-16 8-9 2-3 2-14 2-16 4-1 1-12 2-6 2-13 2-1 1-20 2-2 2-34 2-2 2h-112l-3-2-30-2-51-8-35-9-38-11-17-6-2-3-21-6-12-3-7 1-7 8-5 14-19 41-11 20-14 22-11 18-16 24-9 12-9 11-11 12-8 7-17 13-19 12-19 9-18 6-24 6-21 3-21 1-17-1-22-4-29-10-25-12-21-14-11-9-20-20-10-13-13-21-11-21-10-26-9-28-10-33-11-49-4-23-9-62-3-27-4-43-2-64-1-4-3-54v-54l3-60 2-11v-9l5-8 1-5 2-40 2-6 1-19 1-3 2-16 7-23 7-28 9-29 11-28 5-11 5-15 11-23 12-21 13-21 11-16 14-19 11-14 9-10 7-8 14-15 8-7 10-9 17-13 18-13 17-10 27-14 21-10 27-11 18-6 25-6 22-3 5-2h29l10-2 1-1zm-15 134-26 3-23 5-29 10-22 10-24 14-14 10-10 8-16 15-14 14-7 8-8 10-9 13-10 15-9 13-7 10-6 15-14 36-12 36-6 22-7 32-7 52-6 55v67l1 40 2 46 4 62 4 35 7 51 4 24 4 19 6 26 8 29 12 36 6 14 8 11 10 9 16 9 10 3 10 2h16l17-4 12-6 10-8 7-7 11-16 13-18 7-11 6-12 10-18 14-27 7-15 11-33 7-14 8-11 9-10 10-8 11-7 19-10 17-5 14-3h26l21 4 22 8 25 10 31 10 47 13 15 3 36 6 43 4h64l27-3 30-5 31-7 23-7 31-12 20-9 21-7 20-3h19l18 3 21 7 18 10 11 8 8 7 11 14 10 17 8 19 7 19 7 16 8 16 7 13 10 17 7 12 15 24 6 9 11 9 7 6 14 7 5 2 11 2h22l11-3 16-8 12-11 7-10 4-8 11-27 9-28 12-48 8-46 7-54 3-29 4-57 2-35v-92l-2-42-3-33-5-38-7-38-10-40-13-40-8-21-15-29-10-16-15-22-10-13-11-12-7-8-8-7-11-9-7-7-15-11-15-9-8-5-15-8-25-10-26-8-19-3-15-1-42-1h-129l-475-1z" fill="#AB1E4F"/>
  <path transform="translate(793,775)" d="m0 0h18l16 5 27 11 28 10 30 8 26 5 32 4 20 1h15l24-2 25-4 25-6 22-8 30-13 13-5 13-2h14l14 3 12 5 11 8 8 9 8 14 4 11 2 10v15l-5 16-8 15-9 10-13 9-25 12-32 13-30 9-26 6-35 6-23 2h-59l-36-4-36-6-38-9-24-7-26-9-25-11-19-9-12-11-10-16-4-11-2-10v-12l3-15 6-14 10-13 7-7 11-6 12-5z" fill="#BB3E6F"/>
  <path transform="translate(675,426)" d="m0 0h71l8 7 2 4 1 55v23h80l8 10 1 4v75l-4 7-6 4-44 1h-35v77l-2 5-7 7-4 1h-74l-7-3-5-5-2-13v-69l-79-1-6-4-3-4-1-4v-75l3-6 8-6 6-1h72v-43l1-34 2-5 5-5z" fill="#BB3E6F"/>
  <path transform="translate(1325,509)" d="m0 0 13 1 15 5 12 7 11 11 8 16 2 8v17l-3 12-6 11-9 11-10 7-12 5-9 2h-15l-12-3-14-7-11-11-6-10-4-10-1-5v-19l3-11 6-12 9-10 8-6 12-6z" fill="#AB1E4F"/>
  <path d="m0 0h18l11 3 10 5 12 10 7 10 5 12 2 8v17l-3 10-7 14-8 9-9 6-13 6-8 2h-12l-15-3-14-7-10-9-7-9-5-13-1-7v-17l3-12 5-10 9-10 10-7 14-7z" fill="#BB3E6F" transform="translate(1142,510)"/>
  <path transform="translate(1237,591)" d="m0 0h19l15 5 10 6 11 10 6 10 3 8 2 9v13l-3 13-8 15-6 7-13 9-16 6h-13l-19-5-14-7-4-3v-2h-2l-7-10-5-11-2-8v-20l3-11 7-12 9-10 8-5 11-5z" fill="#DB5E8F"/>
  <path transform="translate(1244,407)" d="m0 0h9l14 3 11 6 8 9 7 14 6 18 2 11v9l-4 10-6 10-14 14-12 5-12 3h-13l-18-5-8-4-9-9-9-14-4-11-1-5v-17l4-14 6-11 8-9 16-8 12-4z" fill="#DB5E8F"/>
</svg>