<?xml version="1.0" encoding="UTF-8"?>
<svg version="1.1" viewBox="0 0 2048 1449" width="1280" height="1280" xmlns="http://www.w3.org/2000/svg">
<path transform="translate(654,204)" d="m0 0h559l128 1 30 4 27 6 33 11 18 7 17 7 21 10 17 10 13 8 16 11 9 7 17 14 10 9 5 5 16 15 13 15 10 12 26 36 8 13 9 16 14 27 11 24 11 28 11 35 8 30 6 25 11 61 4 49 3 18 1 26v129l-2 42-4 45-7 61-4 29-8 44-8 38-10 39-9 27-11 29-12 25-12 20-8 11-12 14-11 11-17 13-18 11-16 8-13 5-22 6-22 4-10 1h-32l-24-4-20-6-19-8-21-11-15-10-11-9-10-9-19-19-14-19-12-18-14-22-15-25-12-23-8-17-8-18-6-9-3-3-10 1-33 12-21 7-40 10-34 6-21 3-23 2-32 2h-38l-33-1-41-4-45-7-38-9-35-10-20-7-3-3-30-9h-10l-7 6-12 27-14 30-12 22-16 25-15 24-9 13-9 12-8 10-11 12-10 9-15 11-16 10-15 8-17 7-21 6-23 4-9 1h-35l-24-4-20-6-25-10-11-6-17-11-11-9-10-9-10-10-11-14-10-15-12-22-12-29-14-43-8-30-8-36-5-26-10-68-5-53-4-77-3-56v-62l3-50 3-24 3-7 1-5 2-34 7-48 13-49 11-36 11-28 10-25 9-19 9-16 10-17 16-24 13-18 8-10 11-13 11-12 2-3h2l2-4 7-7h2v-2l8-7 9-8 11-9 14-10 15-10 19-11 29-15 34-14 18-6 28-7 33-5z" fill="#FDFDFD"/>
<path transform="translate(654,204)" d="m0 0h559l128 1 30 4 27 6 33 11 18 7 17 7 21 10 17 10 13 8 16 11 9 7 17 14 10 9 5 5 16 15 13 15 10 12 26 36 8 13 9 16 14 27 11 24 11 28 11 35 8 30 6 25 11 61 4 49 3 18 1 26v129l-2 42-4 45-7 61-4 29-8 44-8 38-10 39-9 27-11 29-12 25-12 20-8 11-12 14-11 11-17 13-18 11-16 8-13 5-22 6-22 4-10 1h-32l-24-4-20-6-19-8-21-11-15-10-11-9-10-9-19-19-14-19-12-18-14-22-15-25-12-23-8-17-8-18-6-9-3-3-10 1-33 12-21 7-40 10-34 6-21 3-23 2-32 2h-38l-33-1-41-4-45-7-38-9-35-10-20-7-3-3-30-9h-10l-7 6-12 27-14 30-12 22-16 25-15 24-9 13-9 12-8 10-11 12-10 9-15 11-16 10-15 8-17 7-21 6-23 4-9 1h-35l-24-4-20-6-25-10-11-6-17-11-11-9-10-9-10-10-11-14-10-15-12-22-12-29-14-43-8-30-8-36-5-26-10-68-5-53-4-77-3-56v-62l3-50 3-24 3-7 1-5 2-34 7-48 13-49 11-36 11-28 10-25 9-19 9-16 10-17 16-24 13-18 8-10 11-13 11-12 2-3h2l2-4 7-7h2v-2l8-7 9-8 11-9 14-10 15-10 19-11 29-15 34-14 18-6 28-7 33-5zm-15 131-24 3-21 5-24 8-23 10-20 11-11 7-11 8-10 8-16 15-14 14-7 8-11 14-22 33-10 14-5 11-6 18-10 25-12 36-11 44-7 49-6 55-1 7v86l1 34 2 41 3 43 2 26 3 23 4 30 3 22 4 25 7 31 7 27 4 14 13 40 6 12 7 9 7 7 11 7 10 5 10 3 7 1h21l12-3 14-7 11-9 8-9 13-19 12-18 14-25 11-20 8-16 7-15 6-18 5-16 8-15 9-12 13-13 10-7 27-14 24-6 8-1h18l19 3 14 4 27 11 29 10 33 10 29 8 23 4 31 5 30 3 15 1h53l30-3 23-4 33-7 25-7 25-9 25-11 17-7 16-4 20-2 19 1 18 4 16 6 15 8 14 10 11 11 12 17 10 21 10 27 10 22 10 19 13 22 6 11 14 22 7 10 7 6 5 5 8 6 13 6 18 4h17l15-4 15-8 12-11 7-10 11-26 9-25 8-29 8-35 6-33 7-50 5-46 4-61 2-49v-49l-1-38-3-45-4-34-6-36-6-29-8-31-12-36-7-20-18-36-18-27-12-17-13-14-7-8-12-11-9-7-5-5-7-6-16-11-7-4-13-8-19-9-21-8-23-7-17-3-15-1-17-1-406-1z" fill="#6312AA"/>
<path transform="translate(795,775)" d="m0 0h15l12 3 31 13 28 10 26 7 25 5 36 5 23 1h16l23-2 25-4 21-5 23-8 30-13 15-6 14-2h12l15 3 12 5 13 10 8 10 8 16 3 11 1 8v11l-5 16-7 14-8 10-12 9-16 8-22 10-26 10-23 7-24 6-34 6-18 2-16 1h-28l-37-1-39-5-26-5-48-12-33-11-28-12-21-11-8-7-10-15-6-15-2-11 1-17 4-13 6-12 9-11 8-7 16-8 11-3z" fill="#9539ED"/>
<path transform="translate(672,426)" d="m0 0h73l5 3 6 8 1 4v75l39-1h39l6 5 4 5 1 3v76l-4 7-6 4-60 1h-19v76l-3 7-5 5-4 2h-76l-8-4-4-6-1-75 1-5-79-1-6-3-4-5-1-4v-74l3-7 9-6 77-1v-51l1-26 4-7 6-4z" fill="#9539ED"/>
<path transform="translate(1321,510)" d="m0 0h16l13 4 13 7 10 9 7 10 5 13 1 4v17l-3 11-6 12-11 12-9 6-12 5-11 2h-10l-16-4-10-5-10-9-6-8-6-13-2-9v-16l3-12 7-13 8-9 15-10z" fill="#6413AB"/>
<path transform="translate(1143,510)" d="m0 0h17l13 4 10 6 10 9 7 10 5 12 2 9v14l-5 16-7 11-6 7-11 7-12 5-4 1h-21l-14-4-10-6-10-9-7-11-4-11-1-6v-16l4-15 6-10 7-8 10-7 12-6z" fill="#953AED"/>
<path transform="translate(1238,591)" d="m0 0h18l12 4 11 6 9 7 8 11 4 8 3 13v11l-3 12-5 12-8 11-12 9-15 6-13 1-18-4-15-6-10-9-6-8-5-12-2-9v-16l3-12 6-11 9-11 9-6 12-5z" fill="#AB5EF1"/>
<path transform="translate(1244,407)" d="m0 0 16 1 11 4 8 6 8 9 9 19 4 17 1 13-5 13-6 9-10 10-7 5-21 6h-11l-15-4-12-6-11-11-6-10-5-13-1-5v-14l4-15 5-10 9-10 9-6 12-5z" fill="#AB5EF1"/>
<path transform="translate(642,333)" d="m0 0 681 1 15 2 20 3 25 7 18 7 11 4 17 9 11 6 11 7 10 8 8 6 15 14 10 9 9 9 8 10 10 13 11 18 12 19 14 26 11 28 11 33 7 27 5 25 5 27 5 38 3 39 1 19v41h-1l-1-38-3-45-4-34-6-36-6-29-8-31-12-36-7-20-18-36-18-27-12-17-13-14-7-8-11-10-9-7-2-4-4-2-10-8-12-8-7-4-13-8-19-9-21-8-23-7-17-3-15-1-17-1-406-1h-265l-24 3-21 5-24 8-23 10-20 11-11 7-11 8-10 8-16 15-13 13-7 8-11 14-22 33-10 14-5 11-6 18-10 25-12 36-11 44-7 49-6 55-1 7v86l1 34 2 41 3 43 2 26 3 23 4 30 3 22 4 25 7 31 7 27 4 14 13 40 6 12 7 9 10 9 14 8 13 4 7 1h21l12-3 14-7 11-9 7-8 13-19 12-18 14-25 11-20 8-16 7-15 6-18 5-16 8-15 9-12 14-14 10-7 27-14 7-1-3 2-14 7-1 2-10 4-8 4-9 8-5 5-11 12-9 15-4 9-3 18-3 9-5 9-8 14-12 23-10 18-8 16-7 11-4 5-9 14-8 11-12 12-12 7-19 7-11 1-14-1-14-4-16-9-14-12-5-6-6-10-5-14-9-26-7-24-5-18-2-10-5-19-6-41-5-37-2-18-2-15-3-41-2-46-1-10-2-61v-70l3-20 2-22 3-27 2-11 3-25 3-15 5-19 4-16 6-19 6-18 8-20 6-17 6-16 7-11 7-8 9-14 12-17 12-14 7-8 5-6 5-5 14-13 8-7 15-11 14-9 20-11 25-10 25-8 19-4z" fill="#A14EEF"/>
<path transform="translate(904,335)" d="m0 0h416l27 2 19 4 22 7 13 5 11 4 17 9 11 6 11 7 10 8 8 6 15 14 10 9 9 9 8 10 10 13 11 18 12 19 14 26 11 28 11 33 7 27 5 25 5 27 5 38 3 39 1 19v41h-1l-1-38-3-45-4-34-6-36-6-29-8-31-12-36-7-20-18-36-18-27-12-17-13-14-7-8-11-10-9-7-2-4-4-2-10-8-12-8-7-4-13-8-19-9-21-8-23-7-17-3-15-1-17-1-406-1z" fill="#A85AF0"/>
<path transform="translate(642,333)" d="m0 0 681 1 4 2h-688l-24 3-21 5-24 8-23 10-20 11-11 7-11 8-10 8-16 15-13 13-7 8-11 14-5 7-5 4-7 10v-3l7-11 12-16 13-15 7-8 5-5 14-13 8-7 15-11 14-9 20-11 25-10 25-8 19-4z" fill="#9940ED"/>
<path transform="translate(1601,919)" d="m0 0h1v18l-4 44-6 50-7 40-8 38-6 22-8 25-9 25-10 19-11 12-13 8-15 6-8 2h-17l-12-2-19-9-10-8v-2l-3-1-5-5-2-4 9 6 6 7 15 8 15 4 6 1h17l15-4 15-8 12-11 7-11 10-24 9-25 8-29 8-35 6-33 7-50 5-46z" fill="#A14EEF"/>
<path transform="translate(441,453)" d="m0 0 1 2-10 15-9 13-7 10-5 11-6 18-10 25-12 36-11 44-7 49-2 1 1-13 1-18 4-26 6-22 4-16 6-19 6-18 8-20 6-17 6-16 7-11 7-8 4-6 4-4 7-9z" fill="#A24FEF"/>
<path transform="translate(1208,991)" d="m0 0 4 1-24 10-18 8-30 11-21 6-40 9-27 4-21 2h-52l-38-3-30-4-22-4-18-4-48-14-25-9 3-1 24 8 53 15 23 4 31 5 30 3 15 1h53l30-3 23-4 33-7 25-7 25-9 25-11z" fill="#A14EEF"/>
<path transform="translate(680,986)" d="m0 0 4 1-12 5-5 3-1 2-10 4-8 4-9 8-5 5-11 12-9 15-4 9-3 18-3 9-5 9-8 14-12 23-10 18-8 16-7 11-4 5-9 14-8 11-12 12-12 7-3-1 11-6 10-9 6-6 1-5 13-18 7-11 8-13 15-27 18-35 8-21 4-14 5-12 9-15 11-12 8-8 10-7 27-14z" fill="#A04CEF"/>
<path transform="translate(1571,554)" d="m0 0h2l2 9h2l7 24 7 30 7 40 4 32 3 39 1 19v41h-1l-1-38-3-45-4-34-6-36-6-29-8-31-6-19z" fill="#A250EF"/>
<path transform="translate(1555,1170)" d="m0 0 1 2-7 16-7 12-9 10-14 9-6 2v2l-11 4-5 1h-17l-12-2-19-9-10-8v-2l-3-1-5-5-2-4 9 6 6 7 15 8 15 4 6 1h17l15-4 15-8 12-11 7-11 8-18z" fill="#AB5EF1"/>
<path transform="translate(642,333)" d="m0 0 114 1v1l-117 1-24 3-21 5-24 8-23 10-18 10-2-1 5-4 8-4 3-3 10-5 21-8 22-7 19-4z" fill="#A453EF"/>
<path transform="translate(441,453)" d="m0 0 1 2-10 15-9 13-7 10-5 11-6 18-10 25-6 17h-2l2-9 10-27 6-20 6-16 7-11 7-8 4-6 4-4 7-9z" fill="#A351EF"/>
<path transform="translate(533,1197)" d="m0 0v3l-13 13-12 7h-2v2l-16 6-11 1-14-1-14-4-14-8-2-5 16 8 10 3 7 1h21l12-3 14-7 11-9z" fill="#A250EF"/>
<path transform="translate(360,911)" d="m0 0h2l3 48 3 27 3 21 4 30-1 11h-1l-4-26-5-42-2-15-1-31-1-13z" fill="#A24EEF"/>
<path transform="translate(1208,991)" d="m0 0 4 1-24 10-18 8-30 11-21 6-40 9-27 4-11 1h-9v-1l9-2 25-3 22-4 28-6 25-7 25-9 25-11z" fill="#A04DEF"/>
<path transform="translate(680,986)" d="m0 0 4 1-12 5-5 3-1 2-10 4-8 4-9 8-5 5-11 12-9 15-4 9-3 18-3 9-5 9-2 1 3-14 5-16 6-16 8-14 8-10 13-13 10-7 27-14z" fill="#9E49EE"/>
<path transform="translate(1330,336)" d="m0 0 17 1 19 4 22 7 13 5 11 4 17 9 11 6 11 7 7 6h-3l-10-7-6-1-10-7-23-12-24-9-23-7-17-3-10-1z" fill="#9F4AEE"/>
<path transform="translate(1518,446)" d="m0 0 4 3 5 9 14 22 10 18 8 16 8 20 9 25-1 4-2-9-3-1-10-29-8-18-12-23-18-27-2-4z" fill="#A04BEF"/>
<path transform="translate(1356,1057)" d="m0 0 2 2 12 32 10 22 10 19 13 22 6 11 14 22 2 5-4-4-18-28-15-26-10-19-12-27-10-28z" fill="#A14EEF"/>
<path transform="translate(1576,1104)" d="m0 0h1l-1 8-5 19-8 25-9 25-10 19-11 12-13 8-4 2-3-1 13-7 9-7 7-8 10-19 6-20 9-27 6-22z" fill="#973DED"/>
<path transform="translate(400,523)" d="m0 0 1 3-10 26-3 9v7l-7 22-4 17h-2l1-15 6-19 5-17 10-27z" fill="#9C45EE"/>
<path transform="translate(845,929)" d="m0 0 8 1 8 2h7l6 3 10 2 16 4 32 5 21 3v1h-9l-35-5-33-7-31-8z" fill="#AB5EF1"/>
<path transform="translate(642,333)" d="m0 0 114 1v1l-117 1-5 1h-12l2-2z" fill="#A656F0"/>
<path transform="translate(356,847)" d="m0 0h1l1 28h2l1 36v10l1 13v18h-1l-2-28-2-46-1-10z" fill="#9B44EE"/>
<path transform="translate(557,1164)" d="m0 0 1 2-6 8-7 11-9 13-7 8-8 8-12 7-3-1 11-6 10-9 6-6 1-5 13-18 7-8z" fill="#9C45EE"/>
<path transform="translate(406,1174)" d="m0 0 3 4v2h2l6 12 7 9 11 10 2 4-5-2-15-14-8-14-3-8z" fill="#A04BEF"/>
<path transform="translate(539,362)" d="m0 0 2 1-12 7-5 5-11 7-13 10-2-1 4-6 18-12 11-7z" fill="#A04DEF"/>
<path transform="translate(360,911)" d="m0 0h2l4 64-2-2-2-8-1-31-1-13z" fill="#A85AF0"/>
<path transform="translate(1585,1055)" d="m0 0h1v11l-7 34-1 4h-2l-1 6-1-4 7-30z" fill="#A351EF"/>
<path transform="translate(1518,446)" d="m0 0 4 3 5 9 14 22 8 14-1 2-3-3-7-13-18-27-1-4z" fill="#A351EF"/>
<path transform="translate(607,1058)" d="m0 0h1l-1 16-5 11-4 6-1-2 3-12 5-16h2z" fill="#9A42EE"/>
<path transform="translate(615,336)" d="m0 0h7v2l-25 5-19 6-4-2 22-7z" fill="#A24FEF"/>
<path transform="translate(1571,554)" d="m0 0h2l2 9h2l7 24 1 12-2-2-10-35z" fill="#A351EF"/>
<path transform="translate(395,1138)" d="m0 0h2l13 38-1 4-6-12-4-12-2-11z" fill="#A04CEF"/>
<path transform="translate(404,519)" d="m0 0 1 3-10 25-6 17h-2l2-9 10-27 4-8z" fill="#AB5EF1"/>
<path transform="translate(1555,1170)" d="m0 0 1 2-7 16-7 12-9 10-7 5-2-1 15-14 7-11 8-18z" fill="#AB5EF1"/>
<path transform="translate(1356,1057)" d="m0 0 2 2 12 32 9 20-1 4-12-27-10-28z" fill="#A04DEF"/>
<path transform="translate(751,886)" d="m0 0 6 4 6 5 6 2 11 5 11 6v2l-9-3-20-10-11-9z" fill="#AB5EF1"/>
<path transform="translate(1457,1220)" d="m0 0 5 1 11 3 11 2 14-1 12-3 3 1-11 4-5 1h-17l-12-2-11-5z" fill="#9539ED"/>
<path transform="translate(364,657)" d="m0 0h1l-1 20-1 17-2 4-1 6h-1v-9l3-27z" fill="#9D46EE"/>
<path transform="translate(1030,1039)" d="m0 0h9v1l-7 1-1 1h-37v-2z" fill="#A351EF"/>
<path transform="translate(1429,1197)" d="m0 0 9 6 6 7 16 9v1l-7-1-9-6-5-4v-2l-3-1-5-5z" fill="#A14EEF"/>
<path transform="translate(489,396)" d="m0 0 2 1-31 31v-3l9-9 7-8z" fill="#9A41ED"/>
<path transform="translate(1564,532)" d="m0 0h2l9 24 1 7-2-3-1-6-3-1-6-17z" fill="#9F4AEE"/>
<path transform="translate(1379,1113)" d="m0 0 3 3 8 16 6 10-1 2-3-3-7-12-6-12z" fill="#A250EF"/>
<path transform="translate(368,641)" d="m0 0h1v8l-4 27-2 1 1-13 3-22z" fill="#AB5EF1"/>
<path transform="translate(622,1027)" d="m0 0 1 3-9 15-4 9-1 4h-2l-1 3 1-6 5-12 9-15z" fill="#A14EEF"/>
<path transform="translate(1576,1104)" d="m0 0h1l-1 8-5 19-2 3-1-5 5-18z" fill="#A14EEF"/>
<path transform="translate(598,1083)" d="m0 0 1 3-3 9-12 22h-2l2-6 10-19z" fill="#A350EF"/>
<path transform="translate(640,1008)" d="m0 0h2l-2 4-5 5-4 5-5 5-3 2 1-5z" fill="#9C45EE"/>
<path transform="translate(564,1149)" d="m0 0 1 4-6 11-5 5-2 3-2-1 10-15z" fill="#A453EF"/>
<path transform="translate(533,1197)" d="m0 0v3l-13 13-10 6-2-1 12-9 10-9z" fill="#AB5EF1"/>
<path transform="translate(1584,592)" d="m0 0 2 3 4 17v5h-2l-4-15z" fill="#A04BEF"/>
<path transform="translate(592,341)" d="m0 0 4 1h-2v2l-16 5-4-2z" fill="#A14DEF"/>
<path transform="translate(375,598)" d="m0 0h1v13l-1 3-2 1-3 10h-1l1-8z" fill="#9C45EE"/>
<path transform="translate(1589,1036)" d="m0 0h1v8l-3 17h-1v-13l2-11z" fill="#A04CEF"/>
<path transform="translate(1547,495)" d="m0 0 3 1 7 13v5l-3-4-7-13z" fill="#A24FEF"/>
<path transform="translate(1588,617)" d="m0 0h3l2 12v9l-2-3z" fill="#A452EF"/>
<path transform="translate(1461,388)" d="m0 0 5 2 7 7 8 7 1 2-4-2-10-9-7-6z" fill="#9539ED"/>
<path transform="translate(363,967)" d="m0 0h1l1 8h2v11l-2 2-2-12z" fill="#9D47EE"/>
<path transform="translate(571,348)" d="m0 0h5v2l-13 5-2-1v-2z" fill="#A351EF"/>
<path transform="translate(1538,477)" d="m0 0 3 3 8 14-1 2-3-3-7-13z" fill="#9E48EE"/>
<path transform="translate(402,1159)" d="m0 0h2l6 17-1 4-3-6-4-13z" fill="#AB5EF1"/>
<path transform="translate(1568,1132)" d="m0 0h1l-1 8-2 7h-2l-1 4-1-2 5-16z" fill="#A453EF"/>
<path transform="translate(1591,1016)" d="m0 0h1v15l-1 6-2-1 1-13z" fill="#A351EF"/>
<path transform="translate(361,697)" d="m0 0h1v8l-2 13h-1v-14z" fill="#AB5EF1"/>
<path transform="translate(379,590)" d="m0 0h1l-1 8-2 9h-2l1-10z" fill="#AB5EF1"/>
<path transform="translate(1117,521)" d="m0 0 2 1-14 14v-3l7-8z" fill="#A250EF"/>
<path transform="translate(557,1164)" d="m0 0 1 2-6 8-4 6-2-3 4-5 5-5z" fill="#9B43EE"/>
<path transform="translate(1447,1213)" d="m0 0 6 2 7 4v1l-7-1-6-4z" fill="#A351EF"/>
<path transform="translate(406,1174)" d="m0 0 3 4v2h2l3 6-1 3-4-4-3-8z" fill="#A14DEF"/>
<path transform="translate(1098,1029)" d="m0 0 2 1-7 3-10 1 1-2z" fill="#A351EF"/>
<path transform="translate(1593,633)" d="m0 0h1l2 12v6h-2l-2-13z" fill="#A04CEF"/>
<path transform="translate(1518,446)" d="m0 0 4 3 5 9v3l-5-5-2-4z" fill="#9D46EE"/>
<path transform="translate(379,322)" d="m0 0h2l-2 4-8 8-2 3-2-1 9-10z" fill="#9E49EE"/>
<path transform="translate(1559,1160)" d="m0 0h1l-1 8-1 2h-3l3-9z" fill="#A350EF"/>
<path transform="translate(570,1138)" d="m0 0h2l-2 5-4 8-1-4z" fill="#9E49EE"/>
<path transform="translate(1576,1104)" d="m0 0h1l-1 8-2 8-2-2 1-7z" fill="#9D48EE"/>
<path transform="translate(509,380)" d="m0 0 2 1-8 7-3 4-2-1 4-6z" fill="#9D46EE"/>
</svg>
